<svg width="161" height="146" viewBox="0 0 161 146" fill="none" xmlns="http://www.w3.org/2000/svg">
<path d="M140.171 55.1771C139.259 53.9465 138.263 52.7827 137.19 51.6945L92.9165 6.72322C91.7563 5.54293 90.3783 4.60657 88.8615 3.96771C87.3447 3.32884 85.7188 3 84.0767 3C82.4347 3 80.8088 3.32884 79.292 3.96771C77.7751 4.60657 76.3972 5.54293 75.237 6.72322L6.66544 76.3757C5.50347 77.5543 4.58164 78.9539 3.95269 80.4946C3.32374 82.0354 3 83.6869 3 85.3549C3 87.0228 3.32374 88.6744 3.95269 90.2151C4.58164 91.7558 5.50347 93.1555 6.66544 94.334L35.8232 123.921" stroke="#868686" stroke-width="6" stroke-linecap="round" stroke-linejoin="round"/>
<path d="M145.568 55.1772H48.1961C41.3299 55.1772 35.7638 60.8311 35.7638 67.8056V130.372C35.7638 137.346 41.3299 143 48.1961 143H145.568C152.434 143 158 137.346 158 130.372V67.8056C158 60.8311 152.434 55.1772 145.568 55.1772Z" stroke="#868686" stroke-width="6" stroke-linecap="round" stroke-linejoin="round"/>
<path d="M35.7638 79.4042H158" stroke="#868686" stroke-width="6" stroke-linecap="round" stroke-linejoin="round"/>
<path d="M35.7638 91.5177H158" stroke="#868686" stroke-width="6" stroke-linecap="round" stroke-linejoin="round"/>
<path d="M53.652 109.688H77.503" stroke="#868686" stroke-width="6" stroke-linecap="round" stroke-linejoin="round"/>
<path d="M53.652 121.801H68.5589" stroke="#868686" stroke-width="6" stroke-linecap="round" stroke-linejoin="round"/>
<path d="M89.4285 109.688H104.335" stroke="#868686" stroke-width="6" stroke-linecap="round" stroke-linejoin="round"/>
</svg>
