<svg width="15" height="15" viewBox="0 0 15 15" fill="none" xmlns="http://www.w3.org/2000/svg">
<path d="M7.62432 4.32001H7.12432C7.12432 3.28368 6.74752 2.3854 6.16492 1.72844C5.5589 1.06592 4.78341 0.669312 3.93649 0.669312C3.06905 0.669312 2.29629 1.06759 1.71259 1.72335C1.124 2.40539 0.748662 3.30677 0.748662 4.32001C0.748662 5.35769 1.12645 6.25696 1.71035 6.91415L7.62432 13.5704L13.536 6.91677C14.1246 6.23472 14.5 5.3333 14.5 4.32001C14.5 3.28367 14.1232 2.38538 13.5406 1.72841C12.9345 1.06591 12.1591 0.669312 11.3122 0.669312C10.4447 0.669312 9.67197 1.06758 9.08826 1.72333C8.49967 2.40538 8.12432 3.30676 8.12432 4.32001H7.62432Z" stroke="black"/>
</svg>
